<svg xmlns="http://www.w3.org/2000/svg" xmlns:xlink="http://www.w3.org/1999/xlink" width="1920" zoomAndPan="magnify" viewBox="0 0 1440 809.999993" height="1080" preserveAspectRatio="xMidYMid meet" version="1.0"><defs><clipPath id="d4a66f631b"><path d="M 592.0625 207 L 1440 207 L 1440 810 L 592.0625 810 Z M 592.0625 207 " clip-rule="nonzero"/></clipPath></defs><rect x="-144" width="1728" fill="#ffffff" y="-80.999999" height="971.999992" fill-opacity="1"/><rect x="-144" width="1728" fill="#1b7895" y="-80.999999" height="971.999992" fill-opacity="1"/><path fill="#dad9d6" d="M 963.992188 422.984375 C 955.550781 422.988281 945.054688 423.046875 930.71875 423.117188 C 871.574219 423.402344 871.335938 423.414062 845.03125 427.148438 C 838.101562 428.132812 828.113281 429.484375 822.835938 430.152344 C 813.175781 431.371094 797.09375 433.710938 795.671875 434.105469 C 794.351562 434.472656 794.113281 436.234375 795.128906 438.171875 C 798.265625 444.175781 801.121094 459.800781 799.703125 463.21875 C 798.980469 464.972656 799.027344 465.203125 800.351562 466.273438 C 801.332031 467.066406 802.265625 467.316406 803.308594 467.058594 C 804.148438 466.851562 813.207031 466.433594 823.433594 466.128906 C 833.664062 465.828125 845.273438 465.160156 849.230469 464.644531 C 853.445312 464.097656 865.265625 463.488281 877.730469 463.175781 C 893.019531 462.789062 900.378906 462.367188 903.824219 461.675781 C 913.292969 459.773438 926.609375 459.445312 965.320312 460.15625 C 985.609375 460.527344 1011.664062 460.921875 1023.210938 461.03125 C 1047.730469 461.261719 1069.011719 462.097656 1078.605469 463.207031 C 1087.863281 464.277344 1087.796875 464.320312 1091.011719 455.042969 C 1093.839844 446.894531 1099.46875 433.136719 1100.332031 432.277344 C 1101.144531 431.460938 1101.035156 429.199219 1100.152344 428.5 C 1098.453125 427.160156 1094.71875 426.941406 1071.804688 426.839844 C 1057.976562 426.773438 1041.324219 426.324219 1032.507812 425.773438 C 996.117188 423.492188 989.308594 422.980469 963.992188 422.984375 Z M 1031.734375 473.566406 C 999.152344 473.667969 963.375 474.402344 936.820312 475.730469 C 930.222656 476.0625 909.570312 476.609375 890.925781 476.949219 C 851.429688 477.667969 834.257812 478.257812 800.9375 480.042969 C 787.574219 480.761719 775.398438 481.292969 773.878906 481.230469 C 771.300781 481.121094 771.015625 481.265625 769.589844 483.375 C 768.75 484.621094 764.863281 489.253906 760.953125 493.675781 C 752.699219 503.003906 753.207031 502.730469 735.898438 507.234375 C 730.320312 508.6875 725.558594 510.191406 725.316406 510.582031 C 724.753906 511.492188 722.769531 527.839844 721.75 539.933594 C 721.429688 543.726562 720.628906 553.039062 719.96875 560.628906 C 718.570312 576.710938 716.550781 609.859375 715.636719 631.722656 C 715.132812 643.777344 715.210938 656.171875 716.011719 690.214844 C 716.570312 713.972656 717.261719 736.648438 717.546875 740.609375 C 717.832031 744.570312 718.5 754.015625 719.027344 761.605469 C 720.117188 777.25 722.050781 797.121094 723.652344 809.953125 L 1172.101562 809.953125 C 1172.007812 809.140625 1171.957031 808.625 1171.84375 807.648438 C 1171.121094 801.464844 1170.386719 794.105469 1170.210938 791.300781 C 1170.039062 788.496094 1169.453125 781.480469 1168.910156 775.703125 C 1168.179688 767.917969 1167.929688 758.929688 1167.949219 740.910156 C 1167.976562 712.191406 1169.21875 684.144531 1172.546875 637.121094 C 1173.023438 630.355469 1173.585938 619.289062 1173.792969 612.523438 C 1174 605.757812 1174.679688 595.5 1175.304688 589.726562 C 1176.335938 580.234375 1177.554688 544.269531 1177.914062 512.9375 C 1178.042969 501.582031 1179.304688 502.410156 1161.066406 501.855469 C 1153.125 501.613281 1145.847656 501.582031 1144.894531 501.792969 C 1142.46875 502.324219 1141.140625 500.765625 1134.1875 489.238281 C 1131.003906 483.957031 1127.773438 478.992188 1127.003906 478.203125 C 1125.816406 476.988281 1124.753906 476.695312 1120 476.289062 C 1116.921875 476.023438 1111.296875 475.53125 1107.5 475.203125 C 1093.714844 473.996094 1064.320312 473.464844 1031.734375 473.566406 Z M 1311.203125 539.21875 C 1294.507812 539.179688 1277.207031 539.40625 1264.382812 539.917969 C 1251.082031 540.449219 1218.925781 542.472656 1212.347656 543.191406 C 1210.191406 543.429688 1208.890625 544.5625 1208.890625 546.199219 C 1208.890625 547.671875 1205.308594 553.070312 1198.820312 561.371094 C 1194.347656 567.09375 1193.5625 569.289062 1195.539062 570.523438 C 1196.734375 571.269531 1201.890625 571.035156 1214.589844 569.652344 C 1219.207031 569.148438 1228.925781 568.464844 1236.1875 568.128906 C 1243.445312 567.789062 1254.917969 567.230469 1261.683594 566.878906 C 1289.714844 565.433594 1296.789062 565.171875 1309.078125 565.152344 C 1323.121094 565.125 1330.925781 565.492188 1384.96875 568.726562 C 1424.359375 571.085938 1430.21875 571.3125 1431.175781 570.519531 C 1432.640625 569.304688 1432.199219 567.324219 1429.570312 563.273438 C 1428.195312 561.160156 1426.28125 557.699219 1425.320312 555.585938 C 1423.820312 552.300781 1423.671875 551.539062 1424.292969 550.375 C 1425.960938 547.261719 1423.109375 545.3125 1415.976562 544.679688 C 1413.109375 544.425781 1407.382812 543.808594 1403.25 543.308594 C 1399.117188 542.808594 1390.476562 542.113281 1384.050781 541.765625 C 1377.628906 541.414062 1364.269531 540.6875 1354.371094 540.144531 C 1343.976562 539.574219 1327.894531 539.261719 1311.203125 539.21875 Z M 1307.597656 573.527344 C 1305.960938 573.527344 1304.632812 574.929688 1303.339844 578.027344 C 1300.222656 585.492188 1291.402344 594.355469 1282.820312 598.648438 C 1270.238281 604.941406 1259.195312 609.078125 1246.546875 612.234375 C 1234.359375 615.277344 1221.808594 620.019531 1216.6875 623.519531 C 1212.367188 626.46875 1208.023438 631.382812 1205.859375 635.757812 C 1204.179688 639.164062 1203.816406 640.648438 1203.605469 644.929688 C 1203.429688 648.566406 1203.613281 650.652344 1204.246094 652.164062 L 1205.132812 654.289062 L 1199.539062 661.085938 C 1196.460938 664.820312 1193.324219 668.1875 1192.566406 668.5625 C 1191.300781 669.195312 1191.183594 669.675781 1191.074219 674.632812 C 1190.875 683.566406 1189.679688 704.007812 1188.757812 714.21875 C 1186.355469 740.761719 1186.195312 790.160156 1187.914062 809.953125 L 1427.546875 809.953125 C 1427.429688 808.636719 1427.273438 807.078125 1427.054688 804.945312 C 1425.121094 786.160156 1424.746094 775.085938 1425.253906 751.707031 C 1425.871094 723.386719 1425.589844 676.242188 1424.761719 669.519531 C 1424.402344 666.597656 1423.742188 663.972656 1423.214844 663.378906 C 1422.710938 662.804688 1420.78125 661.492188 1418.929688 660.460938 C 1417.078125 659.425781 1414.738281 657.960938 1413.730469 657.207031 C 1411.898438 655.835938 1411.894531 655.816406 1412.34375 651.722656 C 1412.875 646.84375 1412.089844 641.011719 1410.421875 637.460938 C 1407.480469 631.203125 1398.335938 622.597656 1390.367188 618.589844 C 1386.261719 616.527344 1378.386719 613.9375 1356.171875 607.355469 C 1339.453125 602.402344 1333.015625 599.953125 1328.085938 596.660156 C 1319.292969 590.792969 1313.542969 584.429688 1311.128906 577.890625 C 1309.765625 574.199219 1309.222656 573.527344 1307.597656 573.527344 Z M 1307.597656 573.527344 " fill-opacity="1" fill-rule="nonzero"/><g clip-path="url(#d4a66f631b)"><path fill="#fff6ea" d="M 723.304688 207.683594 C 719.375 207.679688 712.523438 207.875 700.453125 208.261719 C 685.4375 208.742188 669.238281 209.53125 664.457031 210.011719 C 653.769531 211.085938 622.914062 212.335938 617.863281 211.898438 C 612.671875 211.449219 612.542969 211.679688 612.636719 221.371094 C 612.714844 229.90625 613.710938 237.894531 615.011719 240.410156 C 615.460938 241.285156 617.253906 243.207031 618.996094 244.683594 C 622.496094 247.652344 633.710938 255.316406 634.554688 255.316406 C 635.777344 255.316406 636.382812 259.324219 637.03125 271.816406 C 637.878906 288.007812 637.871094 294.671875 636.984375 316.511719 C 636.605469 325.914062 636.171875 343.058594 636.015625 354.605469 C 635.867188 366.15625 635.453125 386.539062 635.105469 399.902344 C 634.757812 413.265625 634.195312 435.671875 633.863281 449.695312 C 632.449219 508.792969 631.976562 523.917969 631.121094 537.285156 C 630.078125 553.488281 629.925781 554.5 628.355469 555.339844 C 627.71875 555.679688 626.261719 557.425781 625.117188 559.214844 C 623.972656 561.003906 621.519531 564.15625 619.671875 566.222656 C 617.820312 568.289062 614.664062 572.140625 612.65625 574.78125 C 605.679688 583.957031 599.519531 591.589844 597.796875 593.195312 C 596.355469 594.539062 596.066406 595.292969 596.066406 597.671875 C 596.066406 599.242188 595.679688 603.914062 595.207031 608.050781 C 593.121094 626.339844 592.640625 643.851562 593.324219 676.769531 C 593.667969 693.257812 593.550781 704.90625 592.871094 722.0625 C 592.367188 734.765625 592.074219 748.671875 592.21875 752.960938 C 592.359375 757.25 592.757812 769.398438 593.101562 779.957031 C 593.402344 789.292969 593.941406 800.488281 594.371094 806.59375 C 594.457031 807.769531 595.394531 809.136719 596.527344 809.363281 C 597.023438 809.460938 597.558594 809.554688 598.058594 809.636719 C 599.21875 809.828125 601.121094 809.953125 602.296875 809.953125 L 725.558594 809.953125 C 725.082031 805.300781 724.558594 799.847656 723.578125 788.953125 C 723.074219 783.34375 722.257812 774.4375 721.761719 769.15625 C 718.871094 738.257812 717.503906 679.6875 719.058594 653.371094 C 720.546875 628.203125 721.34375 576.988281 720.316406 572.566406 C 719.984375 571.144531 718.050781 568.257812 714.890625 564.472656 C 712.1875 561.234375 708.960938 557.234375 707.722656 555.585938 L 705.46875 552.582031 L 705.910156 545.683594 C 706.152344 541.886719 706.648438 535.136719 707.007812 530.683594 C 709.402344 501.078125 710.261719 472.269531 709.5 447.292969 C 709.148438 435.910156 708.855469 417.820312 708.855469 407.097656 C 708.855469 396.375 708.574219 383.148438 708.234375 377.703125 C 706.71875 353.222656 706.578125 342.390625 707.40625 312.609375 C 707.867188 296.113281 708.402344 281.941406 708.597656 281.121094 C 708.796875 280.296875 708.929688 275.527344 708.929688 270.519531 L 708.898438 261.410156 L 714.523438 256.320312 C 717.617188 253.523438 722.058594 250.113281 724.398438 248.75 C 730.675781 245.082031 730.785156 244.746094 729.902344 232.230469 C 729.503906 226.617188 729.261719 219.128906 729.367188 215.59375 C 729.511719 210.5 729.363281 208.984375 728.648438 208.277344 C 728.253906 207.882812 727.238281 207.683594 723.308594 207.683594 Z M 877.664062 451.261719 C 873.804688 451.25 870.339844 451.257812 867.21875 451.277344 C 854.726562 451.359375 847.707031 451.691406 842.851562 452.292969 C 835.757812 453.175781 812.304688 455.222656 801.828125 455.878906 C 791.699219 456.511719 784.546875 457.804688 783.375 459.214844 C 782.875 459.816406 782.8125 460.859375 783.160156 462.625 C 783.4375 464.023438 783.601562 468.320312 783.527344 472.175781 C 783.394531 478.847656 783.457031 479.230469 784.75 480.179688 C 785.90625 481.027344 787.195312 481.128906 793.3125 480.847656 C 805.878906 480.273438 818.792969 479.253906 829.308594 478.003906 C 851.234375 475.398438 856.246094 475 871.6875 474.65625 C 881.902344 474.425781 891.773438 474.566406 899.039062 475.042969 C 911.039062 475.828125 964.628906 476.441406 1028.183594 476.519531 C 1049.136719 476.546875 1075.371094 476.929688 1086.480469 477.375 C 1103.441406 478.046875 1106.953125 478.046875 1108.371094 477.367188 C 1110.003906 476.585938 1110.101562 476.277344 1111.136719 468.761719 C 1113.003906 455.160156 1113.121094 455.289062 1097.941406 454.617188 C 1091.746094 454.34375 1080.875 453.773438 1073.777344 453.351562 C 1065.625 452.867188 1045.988281 452.582031 1020.386719 452.574219 C 998.113281 452.566406 954.917969 452.195312 924.398438 451.75 C 904.351562 451.457031 889.238281 451.289062 877.664062 451.261719 Z M 947.714844 498.472656 C 947.179688 498.46875 944.816406 500.871094 942.46875 503.8125 C 932.695312 516.050781 925.898438 522.261719 914.105469 529.730469 C 900.070312 538.621094 896.171875 540.835938 883.375 547.183594 C 870.109375 553.765625 867.734375 554.828125 848.804688 562.65625 C 836.953125 567.554688 805.242188 583.308594 794.816406 589.476562 C 784.339844 595.671875 774.480469 605.625 770.515625 614.007812 C 768.285156 618.722656 767.066406 625.855469 767.3125 632.78125 C 767.492188 637.953125 767.738281 639.011719 769.683594 643.046875 C 770.875 645.523438 772.832031 648.992188 774.03125 650.757812 C 775.234375 652.523438 776.214844 654.234375 776.214844 654.558594 C 776.214844 654.886719 770.707031 660.648438 763.976562 667.363281 L 751.738281 679.574219 L 751.3125 686.394531 C 751.023438 691.039062 751.1875 696.558594 751.832031 703.679688 C 752.59375 712.101562 752.734375 720.507812 752.558594 746.835938 C 752.320312 781.804688 752.761719 797.257812 754.347656 809.230469 C 754.378906 809.460938 754.398438 809.714844 754.429688 809.953125 L 1144.761719 809.953125 C 1145.8125 801.460938 1146.890625 790.246094 1147.257812 783.730469 C 1147.464844 780.101562 1148.015625 772.410156 1148.488281 766.632812 C 1149.644531 752.464844 1149.882812 702.820312 1148.851562 691.34375 C 1148.4375 686.722656 1147.722656 681.660156 1147.265625 680.089844 C 1146.433594 677.242188 1140.808594 669.996094 1131.296875 659.539062 C 1124.59375 652.167969 1125.078125 653.195312 1126.738281 649.855469 C 1130.316406 642.648438 1131.355469 633.582031 1129.304688 627.449219 C 1127.289062 621.414062 1124.648438 616.539062 1120.253906 610.714844 C 1110.304688 597.542969 1102.191406 591.757812 1068.980469 574.171875 C 1051.976562 565.167969 1041.5 560.234375 1031.183594 556.382812 C 1017.207031 551.164062 1009.65625 547.039062 992.296875 535.152344 C 977.808594 525.230469 967.351562 516.785156 957.09375 506.722656 C 952.472656 502.1875 948.253906 498.480469 947.71875 498.472656 Z M 1306.484375 516.925781 C 1295.160156 516.929688 1283.238281 517.125 1276.605469 517.511719 C 1263.277344 518.289062 1242.730469 520.152344 1234.390625 521.34375 C 1222.632812 523.023438 1215.847656 524.101562 1215 524.429688 C 1213.476562 525.011719 1212.792969 527.664062 1212.804688 532.964844 C 1212.8125 538.398438 1214.078125 545.839844 1215.222656 547.21875 C 1215.585938 547.65625 1216.875 548.121094 1218.089844 548.253906 C 1219.300781 548.382812 1220.96875 548.398438 1221.792969 548.285156 C 1243.230469 545.351562 1292.308594 544.75 1341.480469 546.8125 C 1395.113281 549.066406 1401.121094 549.035156 1402.777344 546.503906 C 1403.980469 544.671875 1404.214844 530.800781 1403.097656 527.621094 C 1402.257812 525.230469 1400.402344 524.085938 1397.375 524.085938 C 1396.304688 524.085938 1391.390625 523.425781 1386.453125 522.617188 C 1372.355469 520.316406 1364.007812 519.390625 1351.078125 518.703125 C 1344.480469 518.351562 1336.242188 517.808594 1332.78125 517.496094 C 1328.535156 517.113281 1317.808594 516.921875 1306.484375 516.925781 Z M 1329.5 561.839844 C 1302.414062 561.605469 1266.980469 562.558594 1248.1875 564.28125 C 1244.394531 564.625 1234.808594 565.445312 1226.890625 566.097656 C 1206.96875 567.742188 1189.613281 569.46875 1182.496094 570.511719 C 1179.195312 570.996094 1175.101562 571.570312 1173.394531 571.789062 C 1169.058594 572.335938 1168.226562 573.410156 1168.992188 577.464844 C 1169.75 581.445312 1169.753906 589.675781 1169 600.683594 C 1168.277344 611.273438 1166.832031 640.042969 1166.007812 660.269531 C 1165.429688 674.507812 1164.757812 743.464844 1164.734375 790.972656 C 1164.730469 801.070312 1164.625 806.863281 1164.40625 809.953125 L 1442.484375 809.953125 C 1447.960938 809.953125 1452.328125 805.507812 1451.816406 800.058594 C 1451.464844 796.347656 1450.976562 792.433594 1450.390625 789.046875 C 1449.464844 783.679688 1449.167969 779.34375 1449.175781 771.347656 C 1449.183594 765.523438 1448.914062 751.308594 1448.578125 739.761719 C 1448.238281 728.214844 1447.6875 708.910156 1447.347656 696.867188 C 1446.617188 670.925781 1445.863281 653.207031 1444.65625 633.574219 C 1443.609375 616.574219 1443.554688 606.261719 1444.4375 593.976562 C 1444.792969 589.027344 1445.152344 581.25 1445.238281 576.691406 C 1445.449219 565.359375 1445.792969 565.730469 1435.304688 565.945312 C 1430.925781 566.039062 1422.195312 565.703125 1415.90625 565.203125 C 1409.617188 564.703125 1395.019531 564.011719 1383.472656 563.667969 C 1371.921875 563.324219 1358.15625 562.792969 1352.875 562.488281 C 1346.628906 562.128906 1338.527344 561.917969 1329.5 561.839844 Z M 1329.5 561.839844 " fill-opacity="1" fill-rule="nonzero"/></g><path fill="#ab9047" d="M 670.609375 81.015625 C 670.351562 81.042969 670.074219 81.113281 669.773438 81.21875 C 668.265625 81.742188 667.820312 82.546875 665.96875 88.105469 C 661.6875 100.933594 656.164062 107.703125 641.105469 118.5625 C 627.453125 128.40625 619.625 137.574219 613.183594 151.261719 C 609.269531 159.585938 607.75 164.777344 607.347656 171.242188 C 606.953125 177.570312 607.707031 181.519531 610.28125 186.671875 C 612.347656 190.796875 615.886719 195.855469 617.28125 196.667969 C 618.703125 197.5 618.9375 197.46875 627.070312 195.484375 C 636.0625 193.289062 640.699219 192.707031 655.765625 191.890625 C 662.203125 191.542969 670.839844 190.976562 674.964844 190.636719 C 693.699219 189.097656 719.257812 189.457031 721.472656 191.296875 C 722.820312 192.414062 724.691406 191.367188 726.027344 188.75 C 730.625 179.742188 730.972656 169.609375 727.09375 158.007812 C 725.0625 151.9375 724.152344 150.261719 719.414062 143.890625 C 714.417969 137.167969 710.351562 132.890625 701.0625 124.597656 C 689.621094 114.378906 681.265625 105.414062 677.757812 99.601562 C 674.066406 93.480469 673.222656 91.074219 673.191406 86.5625 C 673.167969 83.078125 672.609375 81.34375 671.316406 81.046875 C 671.101562 80.996094 670.867188 80.988281 670.609375 81.015625 Z M 940.871094 153.488281 C 940.097656 153.488281 938.144531 155.277344 935.460938 158.4375 C 929.863281 165.023438 911.128906 183.367188 894.859375 198.183594 C 870.65625 220.230469 835.328125 254.164062 825.023438 265.269531 C 811.449219 279.898438 799.777344 295.859375 792.488281 309.769531 C 782.953125 327.96875 780.363281 344.605469 783.878906 365.078125 C 787.519531 386.277344 790.53125 397.816406 794.5 405.757812 C 797.785156 412.332031 804.53125 423.183594 807.558594 426.769531 C 809.203125 428.714844 810.550781 430.699219 810.550781 431.183594 C 810.550781 431.667969 811.019531 432.582031 811.597656 433.222656 C 812.476562 434.191406 813.1875 434.328125 815.949219 434.054688 C 817.761719 433.875 823.296875 433.4375 828.246094 433.082031 C 870.691406 430.035156 883.199219 429.316406 902.039062 428.84375 C 930.640625 428.128906 1015.703125 428.136719 1022.925781 428.855469 C 1026.058594 429.167969 1033.484375 429.988281 1039.421875 430.675781 C 1045.363281 431.359375 1054.351562 432.007812 1059.402344 432.117188 L 1068.582031 432.3125 L 1070.199219 430.21875 C 1071.089844 429.066406 1072.953125 426.769531 1074.339844 425.113281 C 1076.988281 421.945312 1083.914062 410.671875 1086.96875 404.558594 C 1090.9375 396.613281 1093.949219 385.078125 1097.589844 363.878906 C 1101.113281 343.367188 1098.527344 326.761719 1088.984375 308.570312 C 1081.671875 294.632812 1070.003906 278.675781 1056.449219 264.074219 C 1045.65625 252.449219 1013.078125 221.199219 982.769531 193.394531 C 973.425781 184.820312 960.445312 172.332031 953.925781 165.644531 C 946.28125 157.800781 941.648438 153.488281 940.871094 153.488281 Z M 1303.996094 348.765625 L 1302.734375 352.664062 C 1300.761719 358.777344 1297.699219 364.28125 1291.214844 373.386719 C 1283.445312 384.296875 1277.8125 390.609375 1260.183594 408.160156 C 1242.921875 425.339844 1236.535156 432.472656 1231.355469 440.324219 C 1226.984375 446.953125 1225.726562 449.617188 1223.984375 455.933594 C 1221.710938 464.175781 1220.824219 470.527344 1220.480469 481.050781 C 1219.957031 497.160156 1221.796875 507.042969 1227.007812 516.148438 C 1228.328125 518.457031 1229.621094 520.75 1229.878906 521.246094 C 1230.277344 522.015625 1232.605469 522.132812 1245.871094 522.042969 C 1254.410156 521.988281 1267.472656 521.507812 1274.894531 520.980469 C 1282.320312 520.453125 1299.191406 519.851562 1312.390625 519.648438 C 1336.628906 519.277344 1347.449219 519.660156 1366.085938 521.554688 C 1370.871094 522.039062 1376.132812 522.527344 1377.785156 522.632812 C 1379.433594 522.742188 1380.96875 522.878906 1381.195312 522.9375 C 1382.257812 523.21875 1384.683594 521.761719 1384.683594 520.847656 C 1384.683594 520.28125 1385.738281 518.046875 1387.03125 515.882812 C 1392.132812 507.335938 1394.027344 497.152344 1393.5 481.050781 C 1393.160156 470.527344 1392.273438 464.175781 1390 455.933594 C 1388.246094 449.574219 1387.058594 447.085938 1382.496094 440.210938 C 1377.113281 432.105469 1371.164062 425.457031 1353.804688 408.160156 C 1336.101562 390.515625 1330.492188 384.230469 1322.769531 373.386719 C 1316.285156 364.28125 1313.222656 358.777344 1311.25 352.664062 L 1309.988281 348.765625 Z M 1303.996094 348.765625 " fill-opacity="1" fill-rule="nonzero"/><path fill="#ab9047" d="M 720.125 187.640625 C 701.710938 187.519531 675.304688 188.074219 664.027344 188.988281 C 638.214844 191.078125 602.5 195.679688 598.117188 197.476562 L 596.101562 198.304688 L 596.460938 202.957031 C 596.65625 205.515625 596.980469 210.578125 597.183594 214.210938 C 597.46875 219.320312 597.777344 220.984375 598.542969 221.585938 C 599.109375 222.027344 600.164062 222.203125 601.003906 221.992188 C 603.644531 221.332031 631.160156 217.621094 638.230469 216.972656 C 658.167969 215.140625 698.480469 213.308594 718.777344 213.308594 C 735.5 213.308594 744.828125 212.53125 746.371094 211.007812 C 747.199219 210.191406 747.558594 208.238281 748.039062 201.90625 C 749.0625 188.476562 749.394531 188.832031 735.019531 188 C 731.515625 187.796875 726.261719 187.679688 720.125 187.640625 Z M 1043.578125 452.171875 C 1036.828125 452.121094 1027.71875 452.175781 1015.285156 452.328125 C 996.476562 452.554688 961.785156 452.820312 938.195312 452.917969 C 910.839844 453.035156 887.695312 453.445312 874.304688 454.058594 C 862.753906 454.585938 844.800781 455.308594 834.40625 455.660156 C 808.464844 456.546875 789.171875 457.976562 781.207031 459.613281 C 778.988281 460.066406 777.902344 461.605469 778.351562 463.652344 C 778.570312 464.652344 778.40625 469.347656 777.984375 474.082031 C 777.152344 483.402344 777.46875 485.214844 780.101562 486.332031 C 780.769531 486.613281 782.796875 486.722656 784.613281 486.570312 C 795.121094 485.691406 811.15625 485 832.605469 484.488281 C 845.96875 484.171875 864.734375 483.582031 874.300781 483.183594 C 888.453125 482.589844 898.476562 482.617188 927.996094 483.316406 C 950.628906 483.855469 990.734375 484.175781 1034.542969 484.175781 C 1092.929688 484.175781 1104.957031 484.316406 1105.773438 484.992188 C 1107.242188 486.210938 1109.675781 485.378906 1110.148438 483.496094 C 1110.363281 482.636719 1110.34375 477.582031 1110.105469 472.257812 C 1109.867188 466.933594 1109.625 461.476562 1109.574219 460.128906 C 1109.453125 457.125 1108.507812 455.898438 1105.660156 455.050781 C 1104.460938 454.695312 1095.027344 454.167969 1084.703125 453.882812 C 1074.375 453.597656 1062.226562 453.035156 1057.703125 452.636719 C 1054.714844 452.375 1050.324219 452.222656 1043.578125 452.171875 Z M 1294.253906 538.785156 C 1273.257812 538.769531 1266.070312 539.09375 1240.859375 541.164062 C 1235.25 541.625 1224.371094 542.152344 1216.683594 542.332031 C 1204.402344 542.621094 1202.523438 542.539062 1201.210938 541.679688 C 1198.78125 540.089844 1197.363281 541.253906 1194.425781 547.246094 C 1190.824219 554.605469 1186.566406 566.113281 1186.566406 568.496094 C 1186.566406 569.582031 1187.039062 570.996094 1187.617188 571.636719 C 1188.605469 572.734375 1189.257812 572.78125 1198.566406 572.417969 C 1204.007812 572.207031 1220.34375 571.773438 1234.859375 571.453125 C 1249.378906 571.132812 1269.898438 570.609375 1280.457031 570.292969 C 1325.285156 568.941406 1359.195312 568.335938 1369.84375 568.695312 C 1376.113281 568.90625 1392.519531 569.242188 1406.300781 569.4375 C 1425.675781 569.714844 1431.5625 569.628906 1432.25 569.058594 C 1433.484375 568.035156 1433.359375 565.691406 1432.019531 564.75 C 1429.859375 563.234375 1424.140625 550.417969 1424.140625 547.089844 C 1424.140625 545.734375 1423.765625 544.914062 1422.953125 544.476562 C 1421.046875 543.457031 1411.261719 542.792969 1403.0625 543.121094 C 1394.574219 543.464844 1364.359375 542.035156 1327.550781 539.546875 C 1321.445312 539.132812 1306.460938 538.789062 1294.253906 538.785156 Z M 1049.765625 615.367188 C 1048.15625 615.519531 1047.613281 615.890625 1047.296875 617.0625 C 1043.070312 632.59375 1039.835938 637.707031 1029.089844 645.855469 C 1021.871094 651.328125 1014.882812 658.796875 1012.554688 663.53125 C 1011.457031 665.761719 1010.582031 668.757812 1010.273438 671.320312 C 1009.820312 675.089844 1009.578125 675.636719 1007.75 677.023438 C 1006.636719 677.867188 1004.914062 679.269531 1003.921875 680.144531 L 1002.113281 681.730469 L 1001.609375 709.839844 C 1000.8125 754.238281 1001.453125 788.050781 1003.464844 809.953125 L 1096.734375 809.953125 C 1097.140625 805.625 1097.542969 800.953125 1097.914062 795.839844 C 1098.722656 784.691406 1098.859375 692.363281 1098.074219 684.976562 C 1097.675781 681.199219 1097.671875 681.191406 1093.910156 678.234375 L 1090.144531 675.277344 L 1089.828125 671.332031 C 1089.386719 665.839844 1086.875 661.035156 1081.320312 655.054688 C 1078.839844 652.386719 1074.230469 648.246094 1071.074219 645.855469 C 1064.277344 640.699219 1060.71875 636.796875 1057.957031 631.472656 C 1055.628906 626.980469 1053.382812 620.695312 1053.382812 618.675781 C 1053.382812 616.34375 1052.074219 615.144531 1049.765625 615.367188 Z M 943.292969 616.761719 C 941.273438 616.761719 940.863281 616.984375 940.511719 618.261719 C 936.21875 633.902344 933.058594 638.898438 922.300781 647.054688 C 919.148438 649.445312 914.535156 653.585938 912.058594 656.257812 C 906.5 662.238281 903.992188 667.042969 903.550781 672.535156 L 903.234375 676.476562 L 899.46875 679.4375 C 895.707031 682.394531 895.703125 682.398438 895.304688 686.171875 C 895.082031 688.253906 894.859375 711.6875 894.800781 738.246094 C 894.710938 781.582031 895.003906 794.207031 896.542969 809.953125 L 990.0625 809.953125 C 990.429688 805.9375 990.792969 801.609375 991.125 797.042969 C 991.933594 785.910156 992.070312 693.589844 991.285156 686.171875 C 990.886719 682.398438 990.882812 682.394531 987.121094 679.4375 L 983.355469 676.476562 L 983.039062 672.535156 C 982.597656 667.042969 980.085938 662.238281 974.53125 656.257812 C 972.050781 653.585938 967.441406 649.445312 964.289062 647.054688 C 953.53125 638.898438 950.371094 633.902344 946.078125 618.261719 C 945.726562 616.984375 945.3125 616.761719 943.292969 616.761719 Z M 834.707031 619.761719 C 832.6875 619.761719 832.273438 619.984375 831.925781 621.261719 C 827.628906 636.902344 824.472656 641.898438 813.714844 650.054688 C 810.558594 652.445312 805.949219 656.585938 803.472656 659.257812 C 797.914062 665.238281 795.402344 670.042969 794.960938 675.535156 L 794.644531 679.476562 L 790.878906 682.4375 C 787.117188 685.390625 787.113281 685.398438 786.714844 689.171875 C 786.492188 691.253906 786.269531 714.6875 786.210938 741.246094 C 786.128906 781.851562 786.378906 795.460938 787.671875 809.953125 L 881.734375 809.953125 C 882.007812 806.785156 882.285156 803.539062 882.539062 800.042969 C 883.347656 788.894531 883.484375 696.5625 882.699219 689.171875 C 882.300781 685.398438 882.296875 685.390625 878.535156 682.4375 L 874.769531 679.476562 L 874.453125 675.535156 C 874.011719 670.042969 871.5 665.238281 865.941406 659.257812 C 863.464844 656.585938 858.855469 652.445312 855.703125 650.054688 C 844.945312 641.898438 841.785156 636.902344 837.492188 621.261719 C 837.140625 619.984375 836.726562 619.761719 834.707031 619.761719 Z M 658.847656 625.582031 C 654.933594 626.089844 624.828125 663.898438 620.570312 673.648438 C 617.144531 681.496094 615.671875 691.1875 613.996094 716.953125 C 612.179688 744.816406 612.3125 778.832031 614.300781 809.953125 L 704.164062 809.953125 C 705.96875 784.304688 706.277344 746.0625 704.789062 722.050781 C 702.554688 685.976562 700.890625 677.574219 693.957031 667.351562 C 688.046875 658.640625 675.523438 642.25 671.570312 638.0625 C 669.230469 635.585938 665.722656 631.726562 663.773438 629.480469 C 661.042969 626.335938 659.910156 625.441406 658.847656 625.582031 Z M 1355.648438 651.257812 C 1353.851562 651.257812 1352.746094 652.65625 1352.746094 654.925781 C 1352.746094 655.664062 1351.65625 658.519531 1350.324219 661.273438 C 1347.574219 666.957031 1343.820312 671.039062 1337.261719 675.476562 C 1332.234375 678.882812 1325.195312 686.023438 1323.402344 689.542969 C 1322.679688 690.96875 1321.925781 693.484375 1321.726562 695.136719 C 1321.410156 697.824219 1321.089844 698.351562 1318.613281 700.238281 C 1317.09375 701.398438 1315.582031 702.796875 1315.25 703.351562 C 1314.875 703.980469 1314.582031 718.269531 1314.460938 741.847656 C 1314.28125 777.796875 1314.746094 794.761719 1316.199219 805.203125 C 1316.382812 806.523438 1316.550781 808.25 1316.6875 809.953125 L 1394.949219 809.953125 C 1395.175781 807.667969 1395.363281 805.703125 1395.671875 802.742188 C 1397.25 787.441406 1397.738281 769.648438 1397.410156 739.203125 C 1397.234375 722.675781 1396.949219 707.726562 1396.773438 705.988281 C 1396.46875 702.992188 1396.277344 702.691406 1393.195312 700.367188 C 1390.308594 698.183594 1389.941406 697.664062 1389.941406 695.730469 C 1389.941406 690.128906 1383.734375 682.097656 1374.292969 675.484375 C 1367.5 670.722656 1362.910156 665.542969 1360.632812 660.066406 C 1359.59375 657.578125 1358.746094 654.902344 1358.746094 654.121094 C 1358.746094 652.242188 1357.683594 651.257812 1355.648438 651.257812 Z M 1247.722656 653.65625 C 1245.703125 653.65625 1245.550781 653.867188 1244.410156 658.25 C 1242.441406 665.8125 1237.371094 672.503906 1229.890625 677.421875 C 1224.941406 680.671875 1217.285156 688.28125 1215.570312 691.648438 C 1214.757812 693.242188 1213.9375 695.894531 1213.742188 697.539062 C 1213.425781 700.222656 1213.101562 700.75 1210.625 702.640625 C 1209.105469 703.796875 1207.59375 705.199219 1207.261719 705.75 C 1206.886719 706.378906 1206.59375 720.773438 1206.472656 744.546875 C 1206.289062 780.808594 1206.730469 796.902344 1208.210938 807.601562 C 1208.304688 808.253906 1208.382812 809.144531 1208.464844 809.953125 L 1287.203125 809.953125 C 1287.386719 808.125 1287.480469 807.117188 1287.683594 805.140625 C 1289.261719 789.839844 1289.75 772.046875 1289.425781 741.601562 C 1289.25 725.074219 1288.960938 710.125 1288.785156 708.386719 C 1288.480469 705.390625 1288.292969 705.089844 1285.210938 702.765625 C 1282.320312 700.582031 1281.953125 700.0625 1281.953125 698.128906 C 1281.953125 692.53125 1275.226562 683.867188 1266.058594 677.652344 C 1258.121094 672.273438 1251.949219 664 1250.933594 657.382812 C 1250.488281 654.476562 1249.78125 653.65625 1247.71875 653.65625 Z M 1247.722656 653.65625 " fill-opacity="1" fill-rule="nonzero"/></svg>