<svg xmlns="http://www.w3.org/2000/svg" xmlns:xlink="http://www.w3.org/1999/xlink" width="500" zoomAndPan="magnify" viewBox="0 0 375 374.999991" height="500" preserveAspectRatio="xMidYMid meet" version="1.0"><defs><clipPath id="bcfb3f98e7"><path d="M 94.351562 99.609375 L 148.351562 99.609375 L 148.351562 152.859375 L 94.351562 152.859375 Z M 94.351562 99.609375 " clip-rule="nonzero"/></clipPath><clipPath id="bbd6bad1a4"><path d="M 160.394531 99.609375 L 213.644531 99.609375 L 213.644531 152.859375 L 160.394531 152.859375 Z M 160.394531 99.609375 " clip-rule="nonzero"/></clipPath><clipPath id="077e11719c"><path d="M 94.699219 160.597656 L 147.949219 160.597656 L 147.949219 213.847656 L 94.699219 213.847656 Z M 94.699219 160.597656 " clip-rule="nonzero"/></clipPath><clipPath id="749d3ecedc"><path d="M 160.046875 160.386719 L 214 160.386719 L 214 213.636719 L 160.046875 213.636719 Z M 160.046875 160.386719 " clip-rule="nonzero"/></clipPath><clipPath id="7abf435bbd"><path d="M 94.351562 221.988281 L 147.601562 221.988281 L 147.601562 275.238281 L 94.351562 275.238281 Z M 94.351562 221.988281 " clip-rule="nonzero"/></clipPath><clipPath id="9ab5f7ec68"><path d="M 159.699219 221.773438 L 213.699219 221.773438 L 213.699219 275.023438 L 159.699219 275.023438 Z M 159.699219 221.773438 " clip-rule="nonzero"/></clipPath><clipPath id="a07d94b627"><path d="M 227.246094 99.609375 L 280.496094 99.609375 L 280.496094 152.859375 L 227.246094 152.859375 Z M 227.246094 99.609375 " clip-rule="nonzero"/></clipPath><clipPath id="c490f7ba00"><path d="M 226.898438 160.386719 L 280.898438 160.386719 L 280.898438 213.636719 L 226.898438 213.636719 Z M 226.898438 160.386719 " clip-rule="nonzero"/></clipPath><clipPath id="6d1afecd7c"><path d="M 226.550781 221.773438 L 280.550781 221.773438 L 280.550781 275.023438 L 226.550781 275.023438 Z M 226.550781 221.773438 " clip-rule="nonzero"/></clipPath></defs><rect x="-37.5" width="450" fill="#ffffff" y="-37.499999" height="449.999989" fill-opacity="1"/><rect x="-37.5" width="450" fill="#ffffff" y="-37.499999" height="449.999989" fill-opacity="1"/><g clip-path="url(#bcfb3f98e7)"><path fill="#249c8e" d="M 94.351562 126.417969 C 94.351562 99.617188 94.351562 99.617188 121.222656 99.617188 C 148.09375 99.617188 148.09375 99.617188 148.09375 126.417969 C 148.09375 153.21875 148.09375 153.21875 121.222656 153.21875 C 94.351562 153.21875 94.351562 153.21875 94.351562 126.417969 Z M 94.351562 126.417969 " fill-opacity="1" fill-rule="nonzero"/></g><g clip-path="url(#bbd6bad1a4)"><path fill="#ecdc51" d="M 173.746094 99.609375 L 200.449219 99.609375 C 207.820312 99.609375 213.796875 105.585938 213.796875 112.960938 L 213.796875 139.664062 C 213.796875 147.035156 207.820312 153.011719 200.449219 153.011719 L 173.746094 153.011719 C 166.371094 153.011719 160.394531 147.035156 160.394531 139.664062 L 160.394531 112.960938 C 160.394531 105.585938 166.371094 99.609375 173.746094 99.609375 Z M 173.746094 99.609375 " fill-opacity="1" fill-rule="nonzero"/></g><g clip-path="url(#077e11719c)"><path fill="#ecdc51" d="M 108.050781 160.597656 L 134.75 160.597656 C 142.125 160.597656 148.101562 166.574219 148.101562 173.949219 L 148.101562 200.652344 C 148.101562 208.023438 142.125 214 134.75 214 L 108.050781 214 C 100.675781 214 94.699219 208.023438 94.699219 200.652344 L 94.699219 173.949219 C 94.699219 166.574219 100.675781 160.597656 108.050781 160.597656 Z M 108.050781 160.597656 " fill-opacity="1" fill-rule="nonzero"/></g><g clip-path="url(#749d3ecedc)"><path fill="#249c8e" d="M 160.046875 187.191406 C 160.046875 160.390625 160.046875 160.390625 186.917969 160.390625 C 213.789062 160.390625 213.789062 160.390625 213.789062 187.191406 C 213.789062 213.992188 213.789062 213.992188 186.917969 213.992188 C 160.046875 213.992188 160.046875 213.992188 160.046875 187.191406 Z M 160.046875 187.191406 " fill-opacity="1" fill-rule="nonzero"/></g><g clip-path="url(#7abf435bbd)"><path fill="#249c8e" d="M 107.703125 221.988281 L 134.402344 221.988281 C 141.777344 221.988281 147.753906 227.964844 147.753906 235.335938 L 147.753906 262.039062 C 147.753906 269.414062 141.777344 275.390625 134.402344 275.390625 L 107.703125 275.390625 C 100.328125 275.390625 94.351562 269.414062 94.351562 262.039062 L 94.351562 235.335938 C 94.351562 227.964844 100.328125 221.988281 107.703125 221.988281 Z M 107.703125 221.988281 " fill-opacity="1" fill-rule="nonzero"/></g><g clip-path="url(#9ab5f7ec68)"><path fill="#ecdc51" d="M 159.699219 248.578125 C 159.699219 221.78125 159.699219 221.78125 186.570312 221.78125 C 213.441406 221.78125 213.441406 221.78125 213.441406 248.578125 C 213.441406 275.378906 213.441406 275.378906 186.570312 275.378906 C 159.699219 275.378906 159.699219 275.378906 159.699219 248.578125 Z M 159.699219 248.578125 " fill-opacity="1" fill-rule="nonzero"/></g><g clip-path="url(#a07d94b627)"><path fill="#249c8e" d="M 240.59375 99.609375 L 267.296875 99.609375 C 274.671875 99.609375 280.648438 105.585938 280.648438 112.960938 L 280.648438 139.664062 C 280.648438 147.035156 274.671875 153.011719 267.296875 153.011719 L 240.59375 153.011719 C 233.222656 153.011719 227.246094 147.035156 227.246094 139.664062 L 227.246094 112.960938 C 227.246094 105.585938 233.222656 99.609375 240.59375 99.609375 Z M 240.59375 99.609375 " fill-opacity="1" fill-rule="nonzero"/></g><g clip-path="url(#c490f7ba00)"><path fill="#ecdc51" d="M 226.898438 187.191406 C 226.898438 160.390625 226.898438 160.390625 253.769531 160.390625 C 280.640625 160.390625 280.640625 160.390625 280.640625 187.191406 C 280.640625 213.992188 280.640625 213.992188 253.769531 213.992188 C 226.898438 213.992188 226.898438 213.992188 226.898438 187.191406 Z M 226.898438 187.191406 " fill-opacity="1" fill-rule="nonzero"/></g><g clip-path="url(#6d1afecd7c)"><path fill="#249c8e" d="M 226.550781 248.578125 C 226.550781 221.78125 226.550781 221.78125 253.421875 221.78125 C 280.292969 221.78125 280.292969 221.78125 280.292969 248.578125 C 280.292969 275.378906 280.292969 275.378906 253.421875 275.378906 C 226.550781 275.378906 226.550781 275.378906 226.550781 248.578125 Z M 226.550781 248.578125 " fill-opacity="1" fill-rule="nonzero"/></g></svg>