<svg xmlns="http://www.w3.org/2000/svg" xmlns:xlink="http://www.w3.org/1999/xlink" width="500" zoomAndPan="magnify" viewBox="0 0 375 374.999991" height="500" preserveAspectRatio="xMidYMid meet" version="1.0"><defs><clipPath id="a5a926ea83"><path d="M 127.777344 99.609375 L 181.777344 99.609375 L 181.777344 152.859375 L 127.777344 152.859375 Z M 127.777344 99.609375 " clip-rule="nonzero"/></clipPath><clipPath id="f227be1b42"><path d="M 193.820312 99.609375 L 247.070312 99.609375 L 247.070312 152.859375 L 193.820312 152.859375 Z M 193.820312 99.609375 " clip-rule="nonzero"/></clipPath><clipPath id="1b8c0e87fe"><path d="M 128.125 160.597656 L 181.375 160.597656 L 181.375 213.847656 L 128.125 213.847656 Z M 128.125 160.597656 " clip-rule="nonzero"/></clipPath><clipPath id="989c3f5609"><path d="M 193.472656 160.386719 L 247.472656 160.386719 L 247.472656 213.636719 L 193.472656 213.636719 Z M 193.472656 160.386719 " clip-rule="nonzero"/></clipPath><clipPath id="fc08249f3c"><path d="M 127.777344 221.988281 L 181.027344 221.988281 L 181.027344 275.238281 L 127.777344 275.238281 Z M 127.777344 221.988281 " clip-rule="nonzero"/></clipPath><clipPath id="7fa37713aa"><path d="M 193.125 221.773438 L 247 221.773438 L 247 275.023438 L 193.125 275.023438 Z M 193.125 221.773438 " clip-rule="nonzero"/></clipPath></defs><rect x="-37.5" width="450" fill="#ffffff" y="-37.499999" height="449.999989" fill-opacity="1"/><rect x="-37.5" width="450" fill="#ffffff" y="-37.499999" height="449.999989" fill-opacity="1"/><g clip-path="url(#a5a926ea83)"><path fill="#1b7895" d="M 127.777344 126.417969 C 127.777344 99.617188 127.777344 99.617188 154.648438 99.617188 C 181.519531 99.617188 181.519531 99.617188 181.519531 126.417969 C 181.519531 153.21875 181.519531 153.21875 154.648438 153.21875 C 127.777344 153.21875 127.777344 153.21875 127.777344 126.417969 Z M 127.777344 126.417969 " fill-opacity="1" fill-rule="nonzero"/></g><g clip-path="url(#f227be1b42)"><path fill="#ecdc51" d="M 207.171875 99.609375 L 233.871094 99.609375 C 241.246094 99.609375 247.222656 105.585938 247.222656 112.960938 L 247.222656 139.664062 C 247.222656 147.035156 241.246094 153.011719 233.871094 153.011719 L 207.171875 153.011719 C 199.796875 153.011719 193.820312 147.035156 193.820312 139.664062 L 193.820312 112.960938 C 193.820312 105.585938 199.796875 99.609375 207.171875 99.609375 Z M 207.171875 99.609375 " fill-opacity="1" fill-rule="nonzero"/></g><g clip-path="url(#1b8c0e87fe)"><path fill="#ecdc51" d="M 141.476562 160.597656 L 168.175781 160.597656 C 175.550781 160.597656 181.527344 166.574219 181.527344 173.949219 L 181.527344 200.652344 C 181.527344 208.023438 175.550781 214 168.175781 214 L 141.476562 214 C 134.101562 214 128.125 208.023438 128.125 200.652344 L 128.125 173.949219 C 128.125 166.574219 134.101562 160.597656 141.476562 160.597656 Z M 141.476562 160.597656 " fill-opacity="1" fill-rule="nonzero"/></g><g clip-path="url(#989c3f5609)"><path fill="#1b7895" d="M 193.472656 187.191406 C 193.472656 160.390625 193.472656 160.390625 220.34375 160.390625 C 247.214844 160.390625 247.214844 160.390625 247.214844 187.191406 C 247.214844 213.992188 247.214844 213.992188 220.34375 213.992188 C 193.472656 213.992188 193.472656 213.992188 193.472656 187.191406 Z M 193.472656 187.191406 " fill-opacity="1" fill-rule="nonzero"/></g><g clip-path="url(#fc08249f3c)"><path fill="#1b7895" d="M 141.128906 221.988281 L 167.828125 221.988281 C 175.203125 221.988281 181.179688 227.964844 181.179688 235.335938 L 181.179688 262.039062 C 181.179688 269.414062 175.203125 275.390625 167.828125 275.390625 L 141.128906 275.390625 C 133.753906 275.390625 127.777344 269.414062 127.777344 262.039062 L 127.777344 235.335938 C 127.777344 227.964844 133.753906 221.988281 141.128906 221.988281 Z M 141.128906 221.988281 " fill-opacity="1" fill-rule="nonzero"/></g><g clip-path="url(#7fa37713aa)"><path fill="#ecdc51" d="M 193.125 248.578125 C 193.125 221.78125 193.125 221.78125 219.996094 221.78125 C 246.867188 221.78125 246.867188 221.78125 246.867188 248.578125 C 246.867188 275.378906 246.867188 275.378906 219.996094 275.378906 C 193.125 275.378906 193.125 275.378906 193.125 248.578125 Z M 193.125 248.578125 " fill-opacity="1" fill-rule="nonzero"/></g></svg>