<svg xmlns="http://www.w3.org/2000/svg" xmlns:xlink="http://www.w3.org/1999/xlink" width="500" zoomAndPan="magnify" viewBox="0 0 375 374.999991" height="500" preserveAspectRatio="xMidYMid meet" version="1.0"><defs><clipPath id="e338824cc1"><path d="M 89 282 L 287 282 L 287 300.476562 L 89 300.476562 Z M 89 282 " clip-rule="nonzero"/></clipPath><clipPath id="39b4893ece"><path d="M 170 74.726562 L 208 74.726562 L 208 112 L 170 112 Z M 170 74.726562 " clip-rule="nonzero"/></clipPath></defs><rect x="-37.5" width="450" fill="#ffffff" y="-37.499999" height="449.999989" fill-opacity="1"/><rect x="-37.5" width="450" fill="#ffffff" y="-37.499999" height="449.999989" fill-opacity="1"/><path fill="#4a8eb0" d="M 76.59375 191.410156 L 125.929688 179.429688 L 150.886719 282.210938 L 101.550781 294.195312 Z M 76.59375 191.410156 " fill-opacity="1" fill-rule="nonzero"/><path fill="#4b638f" d="M 84.074219 189.59375 L 118.457031 181.242188 L 143.414062 284.027344 L 109.03125 292.378906 Z M 84.074219 189.59375 " fill-opacity="1" fill-rule="nonzero"/><path fill="#4a8eb0" d="M 273.648438 294.175781 L 224.3125 282.195312 L 249.273438 179.410156 L 298.609375 191.394531 Z M 273.648438 294.175781 " fill-opacity="1" fill-rule="nonzero"/><path fill="#4b638f" d="M 232.300781 284.128906 L 257.257812 181.34375 L 290.65625 189.457031 L 265.695312 292.238281 Z M 232.300781 284.128906 " fill-opacity="1" fill-rule="nonzero"/><path fill="#fff100" d="M 125.933594 179.421875 L 76.597656 191.402344 C 75.898438 188.503906 77.453125 185.59375 80.136719 184.511719 C 80.394531 184.410156 80.664062 184.316406 80.945312 184.25 L 118.785156 175.0625 C 119.0625 175 119.351562 174.953125 119.632812 174.921875 C 120.925781 174.804688 122.191406 175.109375 123.261719 175.761719 C 124.554688 176.554688 125.542969 177.835938 125.933594 179.421875 Z M 125.933594 179.421875 " fill-opacity="1" fill-rule="nonzero"/><path fill="#4a8eb0" d="M 119.632812 174.921875 C 119.351562 174.953125 119.0625 175 118.785156 175.0625 L 110.339844 177.113281 L 80.945312 184.25 C 80.664062 184.324219 80.394531 184.410156 80.136719 184.523438 C 76.363281 182.484375 73.691406 179.464844 72.78125 175.714844 C 71.097656 168.75 75.9375 161.257812 84.269531 156.585938 C 84.527344 156.4375 84.789062 156.296875 85.058594 156.15625 C 87.738281 154.75 89.675781 152.257812 90.320312 149.304688 L 91.351562 144.613281 L 94.414062 148.300781 C 96.351562 150.628906 99.21875 151.96875 102.234375 151.984375 C 112.203125 152.0625 120.375 156.558594 122.117188 163.734375 C 123.03125 167.476562 122.042969 171.386719 119.632812 174.921875 Z M 119.632812 174.921875 " fill-opacity="1" fill-rule="nonzero"/><path fill="#4b638f" d="M 110.339844 177.113281 L 80.945312 184.25 C 80.664062 184.324219 80.394531 184.410156 80.136719 184.523438 C 76.363281 182.484375 73.691406 179.464844 72.78125 175.714844 C 71.097656 168.75 75.9375 161.257812 84.269531 156.585938 C 86.054688 158.035156 88.316406 158.847656 90.671875 158.867188 C 100.632812 158.949219 108.804688 163.4375 110.546875 170.613281 C 111.066406 172.765625 110.964844 174.960938 110.339844 177.113281 Z M 110.339844 177.113281 " fill-opacity="1" fill-rule="nonzero"/><path fill="#fcb814" d="M 104.691406 197.210938 L 103.628906 197.46875 C 98.007812 198.839844 94.5625 204.5 95.921875 210.121094 L 100.726562 229.921875 L 122.144531 224.71875 L 117.34375 204.917969 C 115.972656 199.296875 110.304688 195.839844 104.691406 197.210938 Z M 104.691406 197.210938 " fill-opacity="1" fill-rule="nonzero"/><path fill="#fcb814" d="M 113.601562 233.90625 L 112.539062 234.167969 C 106.917969 235.535156 103.472656 241.195312 104.832031 246.816406 L 109.632812 266.617188 L 131.054688 261.414062 L 126.25 241.613281 C 124.882812 235.992188 119.222656 232.539062 113.601562 233.90625 Z M 113.601562 233.90625 " fill-opacity="1" fill-rule="nonzero"/><path fill="#000000" d="M 76.589844 193.273438 C 76.253906 193.273438 75.917969 193.179688 75.621094 193.003906 C 75.203125 192.742188 74.894531 192.332031 74.78125 191.847656 C 73.878906 188.113281 75.878906 184.222656 79.4375 182.789062 C 79.800781 182.652344 80.144531 182.539062 80.507812 182.445312 L 118.347656 173.257812 C 118.710938 173.171875 119.082031 173.109375 119.453125 173.070312 C 121.128906 172.902344 122.777344 173.292969 124.230469 174.167969 C 126.007812 175.257812 127.253906 176.972656 127.75 178.984375 C 127.992188 179.980469 127.375 180.984375 126.378906 181.234375 L 77.042969 193.214844 C 76.886719 193.253906 76.738281 193.273438 76.589844 193.273438 Z M 120.191406 176.765625 C 120.058594 176.765625 119.929688 176.777344 119.808594 176.785156 C 119.613281 176.804688 119.417969 176.832031 119.222656 176.886719 L 81.390625 186.074219 C 81.195312 186.121094 81.011719 186.1875 80.824219 186.261719 C 79.585938 186.753906 78.710938 187.828125 78.414062 189.0625 L 123.253906 178.171875 C 122.984375 177.855469 122.65625 177.585938 122.292969 177.363281 C 121.652344 176.960938 120.925781 176.765625 120.191406 176.765625 Z M 120.191406 176.765625 " fill-opacity="1" fill-rule="nonzero"/><path fill="#000000" d="M 80.136719 186.382812 C 79.828125 186.382812 79.53125 186.308594 79.25 186.160156 C 74.847656 183.785156 71.988281 180.324219 70.976562 176.152344 C 69.085938 168.371094 74.402344 159.667969 84.203125 154.507812 C 86.417969 153.34375 87.980469 151.304688 88.511719 148.90625 L 89.546875 144.214844 C 89.695312 143.515625 90.234375 142.976562 90.921875 142.808594 C 91.613281 142.640625 92.339844 142.882812 92.792969 143.429688 L 95.855469 147.117188 C 97.429688 149.015625 99.765625 150.105469 102.261719 150.125 C 113.339844 150.21875 122.050781 155.503906 123.941406 163.296875 C 124.957031 167.46875 123.996094 171.851562 121.175781 175.976562 C 120.871094 176.433594 120.367188 176.71875 119.816406 176.777344 C 119.621094 176.796875 119.425781 176.832031 119.222656 176.878906 L 81.390625 186.066406 C 81.195312 186.113281 81.011719 186.179688 80.824219 186.253906 C 80.601562 186.335938 80.367188 186.382812 80.136719 186.382812 Z M 92.355469 148.738281 L 92.144531 149.707031 C 91.378906 153.175781 89.117188 156.136719 85.933594 157.804688 C 77.667969 162.160156 73.105469 169.179688 74.585938 175.277344 C 75.292969 178.183594 77.269531 180.667969 80.332031 182.492188 C 80.386719 182.472656 80.441406 182.464844 80.496094 182.445312 L 118.335938 173.257812 C 118.394531 173.238281 118.457031 173.230469 118.515625 173.21875 C 120.394531 170.195312 121.007812 167.078125 120.300781 164.171875 C 118.820312 158.074219 111.550781 153.921875 102.214844 153.847656 C 98.621094 153.820312 95.261719 152.238281 92.980469 149.492188 Z M 119.632812 174.921875 Z M 119.632812 174.921875 " fill-opacity="1" fill-rule="nonzero"/><path fill="#000000" d="M 100.726562 231.773438 C 99.886719 231.773438 99.125 231.207031 98.917969 230.351562 L 94.105469 210.550781 C 93.324219 207.347656 93.847656 204.035156 95.558594 201.222656 C 97.273438 198.410156 99.980469 196.429688 103.183594 195.65625 L 104.246094 195.394531 C 110.855469 193.792969 117.539062 197.863281 119.136719 204.472656 L 123.941406 224.273438 C 124.183594 225.269531 123.570312 226.273438 122.574219 226.523438 L 101.152344 231.726562 C 101.015625 231.757812 100.875 231.773438 100.726562 231.773438 Z M 105.128906 199.015625 L 104.066406 199.277344 C 101.832031 199.816406 99.945312 201.203125 98.742188 203.167969 C 97.542969 205.132812 97.1875 207.441406 97.726562 209.683594 L 102.09375 227.667969 L 119.890625 223.351562 L 115.527344 205.363281 C 114.410156 200.738281 109.738281 197.890625 105.128906 199.015625 Z M 105.128906 199.015625 " fill-opacity="1" fill-rule="nonzero"/><path fill="#000000" d="M 101.554688 296.054688 C 100.714844 296.054688 99.953125 295.488281 99.75 294.628906 L 74.78125 191.847656 C 74.660156 191.375 74.746094 190.859375 75.003906 190.441406 C 75.265625 190.023438 75.675781 189.714844 76.160156 189.605469 L 125.496094 177.625 C 126.492188 177.371094 127.496094 177.996094 127.75 178.992188 L 152.714844 281.785156 C 152.835938 282.257812 152.753906 282.769531 152.492188 283.1875 C 152.230469 283.609375 151.820312 283.914062 151.335938 284.027344 L 102 296.007812 C 101.84375 296.035156 101.695312 296.054688 101.554688 296.054688 Z M 78.839844 192.777344 L 102.921875 291.949219 L 148.648438 280.84375 L 124.566406 181.671875 Z M 78.839844 192.777344 " fill-opacity="1" fill-rule="nonzero"/><path fill="#000000" d="M 109.632812 268.472656 C 109.300781 268.472656 108.964844 268.378906 108.667969 268.203125 C 108.246094 267.941406 107.941406 267.53125 107.828125 267.046875 L 103.023438 247.246094 C 101.425781 240.636719 105.492188 233.953125 112.101562 232.351562 L 113.164062 232.089844 C 116.363281 231.320312 119.679688 231.832031 122.488281 233.542969 C 125.300781 235.257812 127.285156 237.964844 128.054688 241.167969 L 132.859375 260.96875 C 133.101562 261.964844 132.488281 262.96875 131.492188 263.222656 L 110.070312 268.425781 C 109.933594 268.453125 109.78125 268.472656 109.632812 268.472656 Z M 116.085938 235.46875 C 115.40625 235.46875 114.714844 235.554688 114.039062 235.710938 L 112.976562 235.972656 C 108.359375 237.089844 105.519531 241.761719 106.644531 246.371094 L 111.011719 264.355469 L 128.808594 260.039062 L 124.445312 242.050781 C 123.90625 239.816406 122.515625 237.929688 120.554688 236.726562 C 119.183594 235.890625 117.648438 235.46875 116.085938 235.46875 Z M 113.601562 233.90625 Z M 113.601562 233.90625 " fill-opacity="1" fill-rule="nonzero"/><path fill="#fff100" d="M 249.292969 179.421875 L 298.628906 191.402344 C 299.328125 188.503906 297.773438 185.59375 295.09375 184.511719 C 294.832031 184.410156 294.5625 184.316406 294.28125 184.25 L 256.441406 175.0625 C 256.164062 175 255.875 174.953125 255.59375 174.921875 C 254.300781 174.804688 253.035156 175.109375 251.964844 175.761719 C 250.671875 176.554688 249.675781 177.835938 249.292969 179.421875 Z M 249.292969 179.421875 " fill-opacity="1" fill-rule="nonzero"/><path fill="#4a8eb0" d="M 302.4375 175.714844 C 301.523438 179.464844 298.863281 182.484375 295.082031 184.523438 C 294.820312 184.410156 294.550781 184.324219 294.273438 184.25 L 286.089844 182.269531 L 256.433594 175.0625 C 256.152344 175 255.863281 174.953125 255.585938 174.921875 C 253.175781 171.386719 252.1875 167.476562 253.101562 163.734375 C 254.839844 156.558594 263.015625 152.0625 272.984375 151.984375 C 273.199219 151.984375 273.402344 151.976562 273.617188 151.957031 C 276.398438 151.773438 279.007812 150.46875 280.804688 148.300781 L 283.867188 144.613281 L 284.898438 149.304688 C 285.542969 152.257812 287.476562 154.75 290.160156 156.15625 C 298.972656 160.792969 304.175781 168.539062 302.4375 175.714844 Z M 302.4375 175.714844 " fill-opacity="1" fill-rule="nonzero"/><path fill="#4b638f" d="M 290.167969 175.714844 C 289.542969 178.265625 288.121094 180.472656 286.089844 182.269531 L 256.433594 175.0625 C 256.152344 175 255.863281 174.953125 255.585938 174.921875 C 253.175781 171.386719 252.1875 167.476562 253.101562 163.734375 C 254.839844 156.558594 263.015625 152.0625 272.984375 151.984375 C 273.199219 151.984375 273.402344 151.976562 273.617188 151.957031 C 274.574219 153.726562 276.054688 155.199219 277.890625 156.15625 C 286.703125 160.792969 291.910156 168.539062 290.167969 175.714844 Z M 290.167969 175.714844 " fill-opacity="1" fill-rule="nonzero"/><path fill="#fcb814" d="M 270.535156 197.210938 L 271.597656 197.46875 C 277.21875 198.839844 280.664062 204.5 279.304688 210.121094 L 274.5 229.921875 L 253.082031 224.71875 L 257.886719 204.917969 C 259.242188 199.296875 264.914062 195.839844 270.535156 197.210938 Z M 270.535156 197.210938 " fill-opacity="1" fill-rule="nonzero"/><path fill="#fcb814" d="M 261.617188 233.90625 L 262.679688 234.167969 C 268.300781 235.535156 271.746094 241.195312 270.386719 246.816406 L 265.582031 266.617188 L 244.164062 261.414062 L 248.96875 241.613281 C 250.335938 235.992188 255.996094 232.539062 261.617188 233.90625 Z M 261.617188 233.90625 " fill-opacity="1" fill-rule="nonzero"/><path fill="#000000" d="M 298.628906 193.273438 C 298.480469 193.273438 298.332031 193.253906 298.191406 193.214844 L 248.855469 181.234375 C 248.371094 181.113281 247.960938 180.816406 247.699219 180.398438 C 247.441406 179.980469 247.367188 179.464844 247.476562 178.992188 C 247.972656 176.972656 249.210938 175.269531 250.988281 174.179688 C 252.449219 173.292969 254.097656 172.921875 255.761719 173.082031 C 256.144531 173.117188 256.507812 173.183594 256.871094 173.265625 L 294.710938 182.453125 C 295.074219 182.539062 295.417969 182.652344 295.769531 182.800781 C 299.335938 184.222656 301.339844 188.113281 300.433594 191.855469 C 300.3125 192.339844 300.015625 192.75 299.597656 193.011719 C 299.300781 193.179688 298.964844 193.273438 298.628906 193.273438 Z M 251.972656 178.164062 L 296.8125 189.054688 C 296.507812 187.816406 295.632812 186.746094 294.394531 186.253906 C 294.21875 186.179688 294.03125 186.121094 293.835938 186.074219 L 255.996094 176.886719 C 255.800781 176.839844 255.605469 176.8125 255.410156 176.785156 C 254.542969 176.703125 253.6875 176.90625 252.921875 177.363281 C 252.558594 177.578125 252.242188 177.847656 251.972656 178.164062 Z M 251.972656 178.164062 " fill-opacity="1" fill-rule="nonzero"/><path fill="#000000" d="M 295.09375 186.382812 C 294.859375 186.382812 294.625 186.335938 294.402344 186.253906 C 294.21875 186.179688 294.03125 186.121094 293.835938 186.066406 L 255.996094 176.878906 C 255.800781 176.832031 255.605469 176.804688 255.410156 176.777344 C 254.859375 176.71875 254.367188 176.433594 254.050781 175.976562 C 251.230469 171.84375 250.28125 167.457031 251.285156 163.296875 C 253.175781 155.503906 261.886719 150.21875 272.957031 150.125 C 275.449219 150.105469 277.785156 149.007812 279.359375 147.117188 L 282.421875 143.429688 C 282.878906 142.882812 283.605469 142.640625 284.292969 142.808594 C 284.984375 142.976562 285.523438 143.523438 285.671875 144.214844 L 286.703125 148.894531 C 287.234375 151.296875 288.800781 153.34375 291.003906 154.5 C 300.808594 159.65625 306.121094 168.359375 304.234375 176.144531 C 303.21875 180.3125 300.359375 183.777344 295.957031 186.152344 C 295.695312 186.308594 295.390625 186.382812 295.09375 186.382812 Z M 256.695312 173.21875 C 256.75 173.230469 256.8125 173.25 256.871094 173.257812 L 294.710938 182.445312 C 294.765625 182.453125 294.820312 182.472656 294.886719 182.492188 C 297.949219 180.667969 299.921875 178.183594 300.628906 175.277344 C 302.109375 169.179688 297.558594 162.160156 289.292969 157.804688 C 286.109375 156.136719 283.847656 153.175781 283.082031 149.707031 L 282.871094 148.738281 L 282.238281 149.5 C 279.957031 152.246094 276.585938 153.828125 272.992188 153.855469 C 263.65625 153.933594 256.386719 158.082031 254.90625 164.179688 C 254.207031 167.078125 254.824219 170.195312 256.695312 173.21875 Z M 253.101562 163.734375 Z M 253.101562 163.734375 " fill-opacity="1" fill-rule="nonzero"/><path fill="#000000" d="M 274.492188 231.773438 C 274.34375 231.773438 274.195312 231.757812 274.054688 231.71875 L 252.636719 226.515625 C 252.152344 226.394531 251.742188 226.097656 251.480469 225.675781 C 251.21875 225.257812 251.144531 224.746094 251.257812 224.273438 L 256.070312 204.472656 C 257.671875 197.863281 264.355469 193.792969 270.964844 195.394531 L 272.023438 195.65625 C 275.226562 196.429688 277.9375 198.410156 279.648438 201.222656 C 281.363281 204.035156 281.882812 207.347656 281.101562 210.550781 L 276.296875 230.351562 C 276.175781 230.835938 275.878906 231.242188 275.460938 231.503906 C 275.171875 231.679688 274.835938 231.773438 274.492188 231.773438 Z M 255.324219 223.339844 L 273.125 227.660156 L 277.488281 209.675781 C 278.027344 207.441406 277.675781 205.121094 276.472656 203.160156 C 275.273438 201.195312 273.382812 199.816406 271.148438 199.265625 L 270.078125 199.007812 C 265.460938 197.890625 260.796875 200.730469 259.679688 205.347656 Z M 255.324219 223.339844 " fill-opacity="1" fill-rule="nonzero"/><path fill="#000000" d="M 265.582031 268.472656 C 265.433594 268.472656 265.285156 268.453125 265.144531 268.414062 L 243.726562 263.210938 C 242.730469 262.96875 242.117188 261.964844 242.359375 260.957031 L 247.160156 241.160156 C 247.933594 237.957031 249.917969 235.246094 252.726562 233.535156 C 255.539062 231.820312 258.851562 231.300781 262.054688 232.082031 L 263.117188 232.34375 C 269.726562 233.945312 273.792969 240.628906 272.191406 247.238281 L 267.390625 267.039062 C 267.269531 267.523438 266.96875 267.929688 266.550781 268.191406 C 266.253906 268.378906 265.917969 268.472656 265.582031 268.472656 Z M 246.417969 260.039062 L 264.214844 264.355469 L 268.582031 246.371094 C 269.699219 241.753906 266.859375 237.089844 262.242188 235.972656 L 261.179688 235.710938 C 258.945312 235.171875 256.628906 235.527344 254.664062 236.726562 C 252.699219 237.929688 251.320312 239.816406 250.773438 242.050781 Z M 246.417969 260.039062 " fill-opacity="1" fill-rule="nonzero"/><path fill="#000000" d="M 273.664062 296.054688 C 273.515625 296.054688 273.375 296.035156 273.226562 296 L 223.890625 284.015625 C 223.40625 283.898438 222.996094 283.597656 222.734375 283.179688 C 222.472656 282.761719 222.398438 282.25 222.511719 281.773438 L 247.476562 178.984375 C 247.71875 177.988281 248.726562 177.371094 249.730469 177.613281 L 299.066406 189.59375 C 299.550781 189.714844 299.960938 190.015625 300.222656 190.433594 C 300.480469 190.851562 300.554688 191.363281 300.445312 191.839844 L 275.476562 294.628906 C 275.265625 295.488281 274.511719 296.054688 273.664062 296.054688 Z M 226.578125 280.84375 L 272.304688 291.949219 L 296.386719 192.777344 L 250.660156 181.671875 Z M 226.578125 280.84375 " fill-opacity="1" fill-rule="nonzero"/><path fill="#4b638f" d="M 120.117188 200.414062 L 255.195312 200.414062 L 255.195312 284.6875 L 120.117188 284.6875 Z M 120.117188 200.414062 " fill-opacity="1" fill-rule="nonzero"/><path fill="#fff100" d="M 243.960938 200.414062 L 131.34375 200.414062 C 131.34375 193.8125 136.21875 188.339844 142.578125 187.425781 C 143.191406 187.34375 143.824219 187.285156 144.46875 187.285156 L 230.832031 187.285156 C 231.476562 187.285156 232.117188 187.332031 232.734375 187.425781 C 235.589844 187.835938 238.160156 189.175781 240.113281 191.132812 C 242.488281 193.503906 243.960938 196.789062 243.960938 200.414062 Z M 243.960938 200.414062 " fill-opacity="1" fill-rule="nonzero"/><path fill="#4a8eb0" d="M 243.960938 164.601562 C 243.960938 173.164062 239.789062 181.066406 232.734375 187.425781 C 232.117188 187.34375 231.476562 187.285156 230.832031 187.285156 L 144.46875 187.285156 C 143.824219 187.285156 143.191406 187.332031 142.578125 187.425781 C 135.511719 181.066406 131.34375 173.164062 131.34375 164.601562 C 131.34375 148.226562 146.628906 134.261719 168.054688 128.871094 C 174.5625 127.242188 180.035156 122.875 182.976562 116.851562 L 187.660156 107.292969 L 192.332031 116.84375 C 195.285156 122.867188 200.757812 127.25 207.265625 128.871094 C 228.683594 134.261719 243.960938 148.214844 243.960938 164.601562 Z M 243.960938 164.601562 " fill-opacity="1" fill-rule="nonzero"/><path fill="#4b638f" d="M 229.039062 170.203125 C 229.039062 176.496094 225.964844 182.304688 220.789062 186.980469 C 220.332031 186.914062 219.867188 186.875 219.394531 186.875 L 155.90625 186.875 C 155.433594 186.875 154.96875 186.914062 154.519531 186.980469 C 149.328125 182.304688 146.265625 176.496094 146.265625 170.203125 C 146.265625 158.167969 157.5 147.898438 173.25 143.941406 C 178.035156 142.75 182.054688 139.539062 184.214844 135.109375 L 187.660156 128.082031 L 191.09375 135.097656 C 193.265625 139.53125 197.285156 142.742188 202.070312 143.941406 C 217.820312 147.898438 229.039062 158.15625 229.039062 170.203125 Z M 229.039062 170.203125 " fill-opacity="1" fill-rule="nonzero"/><path fill="#28426e" d="M 91.148438 284.6875 L 284.152344 284.6875 L 284.152344 298.652344 L 91.148438 298.652344 Z M 91.148438 284.6875 " fill-opacity="1" fill-rule="nonzero"/><path fill="#fcb814" d="M 213.082031 241.921875 L 213.082031 284.6875 L 163.652344 284.6875 L 163.652344 241.921875 C 163.652344 241.007812 163.753906 240.132812 163.949219 239.277344 C 164.453125 237.054688 165.578125 235.0625 167.144531 233.496094 C 169.292969 231.335938 172.273438 230.007812 175.558594 230.007812 C 179.066406 230.007812 182.269531 228.023438 183.84375 224.886719 L 188.367188 215.835938 L 192.890625 224.886719 C 193.671875 226.460938 194.863281 227.734375 196.308594 228.617188 C 197.742188 229.511719 199.417969 230.007812 201.167969 230.007812 C 206.835938 230.007812 211.582031 233.972656 212.785156 239.277344 C 212.980469 240.132812 213.082031 241.007812 213.082031 241.921875 Z M 213.082031 241.921875 " fill-opacity="1" fill-rule="nonzero"/><path fill="#fcb814" d="M 154.625 239.425781 L 154.625 284.6875 L 132.582031 284.6875 L 132.582031 239.425781 C 132.582031 233.644531 137.273438 228.953125 143.050781 228.953125 L 144.152344 228.953125 C 149.933594 228.953125 154.625 233.644531 154.625 239.425781 Z M 154.625 239.425781 " fill-opacity="1" fill-rule="nonzero"/><path fill="#fcb814" d="M 154.632812 187.285156 L 220.679688 187.285156 L 220.679688 200.414062 L 154.632812 200.414062 Z M 154.632812 187.285156 " fill-opacity="1" fill-rule="nonzero"/><path fill="#fcb814" d="M 242.710938 239.425781 L 242.710938 284.6875 L 220.667969 284.6875 L 220.667969 239.425781 C 220.667969 233.644531 225.359375 228.953125 231.140625 228.953125 L 232.238281 228.953125 C 238.019531 228.953125 242.710938 233.644531 242.710938 239.425781 Z M 242.710938 239.425781 " fill-opacity="1" fill-rule="nonzero"/><path fill="#000000" d="M 255.183594 286.550781 L 120.117188 286.550781 C 119.09375 286.550781 118.253906 285.710938 118.253906 284.6875 L 118.253906 200.414062 C 118.253906 199.386719 119.09375 198.550781 120.117188 198.550781 L 255.183594 198.550781 C 256.210938 198.550781 257.046875 199.386719 257.046875 200.414062 L 257.046875 284.6875 C 257.046875 285.710938 256.21875 286.550781 255.183594 286.550781 Z M 121.976562 282.824219 L 253.324219 282.824219 L 253.324219 202.273438 L 121.976562 202.273438 Z M 121.976562 282.824219 " fill-opacity="1" fill-rule="nonzero"/><path fill="#000000" d="M 243.960938 202.273438 L 131.34375 202.273438 C 130.316406 202.273438 129.480469 201.4375 129.480469 200.414062 C 129.480469 193.003906 135 186.625 142.316406 185.582031 C 143.050781 185.480469 143.761719 185.425781 144.46875 185.425781 L 230.832031 185.425781 C 231.542969 185.425781 232.277344 185.480469 232.992188 185.582031 C 236.195312 186.039062 239.109375 187.5 241.425781 189.808594 C 244.257812 192.648438 245.8125 196.417969 245.8125 200.414062 C 245.820312 201.445312 244.984375 202.273438 243.960938 202.273438 Z M 133.351562 198.550781 L 241.9375 198.550781 C 241.558594 196.25 240.476562 194.128906 238.792969 192.445312 C 237.050781 190.710938 234.863281 189.613281 232.460938 189.269531 C 231.914062 189.195312 231.363281 189.148438 230.824219 189.148438 L 144.46875 189.148438 C 143.925781 189.148438 143.398438 189.183594 142.839844 189.269531 C 137.96875 189.96875 134.164062 193.8125 133.351562 198.550781 Z M 133.351562 198.550781 " fill-opacity="1" fill-rule="nonzero"/><path fill="#000000" d="M 232.734375 189.289062 C 232.648438 189.289062 232.554688 189.277344 232.472656 189.269531 C 231.921875 189.195312 231.375 189.148438 230.832031 189.148438 L 144.46875 189.148438 C 143.925781 189.148438 143.398438 189.183594 142.839844 189.269531 C 142.289062 189.34375 141.738281 189.175781 141.332031 188.8125 C 133.578125 181.832031 129.480469 173.460938 129.480469 164.609375 C 129.480469 147.890625 144.800781 132.808594 167.601562 127.074219 C 173.621094 125.566406 178.613281 121.546875 181.300781 116.042969 L 185.984375 106.472656 C 186.300781 105.832031 186.941406 105.429688 187.660156 105.429688 C 188.367188 105.429688 189.019531 105.839844 189.335938 106.472656 L 194.007812 116.023438 C 196.707031 121.535156 201.707031 125.566406 207.71875 127.066406 C 230.515625 132.800781 245.832031 147.878906 245.832031 164.601562 C 245.832031 173.453125 241.734375 181.820312 233.988281 188.804688 C 233.636719 189.121094 233.1875 189.289062 232.734375 189.289062 Z M 144.46875 185.425781 L 230.832031 185.425781 C 231.253906 185.425781 231.671875 185.441406 232.101562 185.480469 C 238.644531 179.34375 242.097656 172.140625 242.097656 164.601562 C 242.097656 149.621094 227.910156 135.984375 206.796875 130.675781 C 199.722656 128.910156 193.832031 124.160156 190.648438 117.664062 L 187.652344 111.527344 L 184.644531 117.671875 C 181.480469 124.160156 175.597656 128.910156 168.503906 130.675781 C 147.390625 135.984375 133.203125 149.621094 133.203125 164.601562 C 133.203125 172.140625 136.65625 179.34375 143.210938 185.480469 C 143.628906 185.441406 144.046875 185.425781 144.46875 185.425781 Z M 144.46875 185.425781 " fill-opacity="1" fill-rule="nonzero"/><path fill="#fff100" d="M 132.582031 251.84375 C 138.855469 247.683594 146.320312 244.222656 154.625 241.679688 L 154.625 284.6875 L 132.582031 284.6875 Z M 132.582031 251.84375 " fill-opacity="1" fill-rule="nonzero"/><path fill="#fff100" d="M 212.785156 239.277344 C 212.980469 240.132812 213.082031 241.007812 213.082031 241.921875 L 213.082031 284.6875 L 163.652344 284.6875 L 163.652344 241.921875 C 163.652344 241.007812 163.753906 240.132812 163.949219 239.277344 C 171.621094 237.675781 179.832031 236.800781 188.367188 236.800781 C 196.902344 236.800781 205.113281 237.675781 212.785156 239.277344 Z M 212.785156 239.277344 " fill-opacity="1" fill-rule="nonzero"/><path fill="#fff100" d="M 242.710938 250.921875 L 242.710938 284.6875 L 220.667969 284.6875 L 220.667969 241.25 C 228.925781 243.644531 236.382812 246.9375 242.710938 250.921875 Z M 242.710938 250.921875 " fill-opacity="1" fill-rule="nonzero"/><g clip-path="url(#e338824cc1)"><path fill="#000000" d="M 284.152344 300.511719 L 91.148438 300.511719 C 90.125 300.511719 89.285156 299.675781 89.285156 298.652344 L 89.285156 284.6875 C 89.285156 283.664062 90.125 282.824219 91.148438 282.824219 L 284.152344 282.824219 C 285.179688 282.824219 286.015625 283.664062 286.015625 284.6875 L 286.015625 298.652344 C 286.015625 299.675781 285.179688 300.511719 284.152344 300.511719 Z M 93.007812 296.789062 L 282.292969 296.789062 L 282.292969 286.550781 L 93.007812 286.550781 Z M 93.007812 296.789062 " fill-opacity="1" fill-rule="nonzero"/></g><path fill="#000000" d="M 213.082031 286.550781 L 163.652344 286.550781 C 162.628906 286.550781 161.789062 285.710938 161.789062 284.6875 L 161.789062 241.921875 C 161.789062 234.324219 167.972656 228.144531 175.566406 228.144531 C 178.386719 228.144531 180.921875 226.582031 182.175781 224.058594 L 186.699219 215.007812 C 187.019531 214.375 187.660156 213.976562 188.367188 213.976562 C 189.074219 213.976562 189.71875 214.375 190.035156 215.007812 L 194.558594 224.058594 C 195.8125 226.582031 198.355469 228.144531 201.167969 228.144531 C 208.761719 228.144531 214.945312 234.324219 214.945312 241.921875 L 214.945312 284.6875 C 214.945312 285.710938 214.105469 286.550781 213.082031 286.550781 Z M 165.515625 282.824219 L 211.21875 282.824219 L 211.21875 241.921875 C 211.21875 236.382812 206.714844 231.867188 201.167969 231.867188 C 196.929688 231.867188 193.113281 229.511719 191.226562 225.722656 L 188.367188 220 L 185.507812 225.722656 C 183.609375 229.511719 179.804688 231.867188 175.566406 231.867188 C 170.027344 231.867188 165.515625 236.375 165.515625 241.921875 Z M 165.515625 282.824219 " fill-opacity="1" fill-rule="nonzero"/><path fill="#000000" d="M 154.625 286.550781 L 132.582031 286.550781 C 131.554688 286.550781 130.71875 285.710938 130.71875 284.6875 L 130.71875 239.4375 C 130.71875 232.632812 136.246094 227.101562 143.050781 227.101562 L 144.152344 227.101562 C 150.957031 227.101562 156.484375 232.632812 156.484375 239.4375 L 156.484375 284.6875 C 156.484375 285.710938 155.65625 286.550781 154.625 286.550781 Z M 134.441406 282.824219 L 152.761719 282.824219 L 152.761719 239.4375 C 152.761719 234.6875 148.898438 230.824219 144.152344 230.824219 L 143.050781 230.824219 C 138.304688 230.824219 134.441406 234.6875 134.441406 239.4375 Z M 134.441406 282.824219 " fill-opacity="1" fill-rule="nonzero"/><path fill="#000000" d="M 242.710938 286.550781 L 220.667969 286.550781 C 219.644531 286.550781 218.808594 285.710938 218.808594 284.6875 L 218.808594 239.4375 C 218.808594 232.632812 224.335938 227.101562 231.140625 227.101562 L 232.238281 227.101562 C 239.042969 227.101562 244.574219 232.632812 244.574219 239.4375 L 244.574219 284.6875 C 244.574219 285.710938 243.746094 286.550781 242.710938 286.550781 Z M 222.539062 282.824219 L 240.859375 282.824219 L 240.859375 239.4375 C 240.859375 234.6875 236.996094 230.824219 232.25 230.824219 L 231.148438 230.824219 C 226.402344 230.824219 222.539062 234.6875 222.539062 239.4375 Z M 222.539062 282.824219 " fill-opacity="1" fill-rule="nonzero"/><path fill="#fff100" d="M 189.699219 80.695312 C 185.148438 81.414062 181.589844 84.53125 180.304688 88.339844 C 180 89.289062 179.820312 90.265625 179.738281 91.242188 C 179.699219 92.230469 179.792969 93.21875 180 94.15625 C 180.230469 95.097656 180.566406 96 181.023438 96.859375 C 181.496094 97.695312 182.085938 98.46875 182.746094 99.167969 C 183.433594 99.84375 184.214844 100.414062 185.042969 100.90625 C 185.890625 101.371094 186.804688 101.699219 187.742188 101.957031 C 189.652344 102.386719 191.699219 102.3125 193.597656 101.660156 C 197.425781 100.375 200.550781 96.765625 201.214844 92.222656 L 201.222656 92.175781 C 201.382812 91.09375 202.386719 90.351562 203.457031 90.507812 C 204.359375 90.640625 205.019531 91.355469 205.132812 92.222656 C 205.503906 95.257812 204.804688 98.488281 203.207031 101.261719 C 201.605469 104.027344 199.109375 106.34375 196.101562 107.703125 C 194.605469 108.382812 192.992188 108.875 191.347656 109.070312 C 189.699219 109.265625 188.023438 109.210938 186.367188 108.941406 C 184.71875 108.644531 183.109375 108.101562 181.609375 107.332031 C 180.121094 106.539062 178.761719 105.535156 177.550781 104.359375 C 176.367188 103.167969 175.371094 101.792969 174.5625 100.3125 C 173.769531 98.820312 173.25 97.203125 172.914062 95.554688 C 172.636719 93.898438 172.609375 92.222656 172.792969 90.566406 C 173.015625 88.917969 173.445312 87.289062 174.152344 85.789062 C 174.871094 84.300781 175.773438 82.914062 176.851562 81.691406 C 177.980469 80.511719 179.246094 79.488281 180.621094 78.667969 C 182.027344 77.886719 183.527344 77.316406 185.0625 76.972656 C 186.609375 76.65625 188.171875 76.609375 189.6875 76.777344 C 190.769531 76.898438 191.550781 77.867188 191.429688 78.957031 C 191.328125 79.859375 190.640625 80.546875 189.78125 80.6875 Z M 189.699219 80.695312 " fill-opacity="1" fill-rule="nonzero"/><g clip-path="url(#39b4893ece)"><path fill="#000000" d="M 189.371094 111.042969 C 188.292969 111.042969 187.195312 110.960938 186.085938 110.773438 C 184.195312 110.429688 182.417969 109.824219 180.769531 108.976562 C 179.152344 108.121094 177.644531 107.023438 176.273438 105.691406 C 174.972656 104.386719 173.863281 102.878906 172.941406 101.203125 C 172.105469 99.621094 171.5 97.855469 171.109375 95.925781 C 170.800781 94.101562 170.753906 92.257812 170.960938 90.367188 C 171.238281 88.359375 171.742188 86.570312 172.476562 85.007812 C 173.296875 83.292969 174.300781 81.777344 175.476562 80.464844 C 176.742188 79.125 178.136719 77.996094 179.671875 77.074219 C 181.285156 76.183594 182.949219 75.539062 184.664062 75.167969 C 186.382812 74.8125 188.132812 74.738281 189.894531 74.933594 C 190.910156 75.046875 191.820312 75.550781 192.464844 76.347656 C 193.105469 77.148438 193.394531 78.144531 193.28125 79.171875 C 193.097656 80.882812 191.773438 82.269531 190.070312 82.53125 L 189.976562 82.550781 C 186.28125 83.136719 183.171875 85.648438 182.066406 88.945312 C 181.824219 89.699219 181.664062 90.535156 181.589844 91.410156 C 181.570312 92.15625 181.636719 92.984375 181.8125 93.765625 C 182 94.519531 182.289062 95.285156 182.660156 95.992188 C 183.015625 96.605469 183.5 97.265625 184.105469 97.910156 C 184.589844 98.382812 185.25 98.878906 186.003906 99.324219 C 186.582031 99.640625 187.304688 99.921875 188.246094 100.179688 C 189.773438 100.523438 191.496094 100.433594 193.003906 99.921875 C 196.335938 98.804688 198.839844 95.683594 199.378906 91.96875 C 199.539062 90.910156 200.070312 90.015625 200.886719 89.402344 C 201.707031 88.785156 202.722656 88.535156 203.734375 88.683594 C 205.441406 88.933594 206.78125 90.304688 206.984375 92.007812 C 207.402344 95.433594 206.640625 99.054688 204.824219 102.199219 C 202.992188 105.367188 200.171875 107.917969 196.875 109.40625 C 195.117188 110.207031 193.328125 110.71875 191.558594 110.921875 C 190.851562 110.996094 190.117188 111.042969 189.371094 111.042969 Z M 188.003906 78.546875 C 187.136719 78.546875 186.28125 78.628906 185.445312 78.796875 C 184.113281 79.09375 182.792969 79.597656 181.542969 80.289062 C 180.363281 81.003906 179.226562 81.917969 178.230469 82.96875 C 177.328125 83.984375 176.515625 85.210938 175.855469 86.589844 C 175.289062 87.800781 174.886719 89.222656 174.664062 90.816406 C 174.507812 92.304688 174.542969 93.8125 174.785156 95.238281 C 175.09375 96.765625 175.585938 98.199219 176.238281 99.4375 C 176.972656 100.785156 177.875 102.003906 178.902344 103.039062 C 179.988281 104.089844 181.21875 104.984375 182.503906 105.671875 C 183.804688 106.34375 185.230469 106.828125 186.71875 107.097656 C 188.210938 107.339844 189.71875 107.375 191.140625 107.210938 C 192.519531 107.050781 193.933594 106.640625 195.339844 106 C 197.9375 104.824219 200.160156 102.804688 201.605469 100.3125 C 203.011719 97.863281 203.613281 95.070312 203.289062 92.4375 C 203.289062 92.417969 203.261719 92.351562 203.195312 92.332031 C 203.148438 92.324219 203.074219 92.378906 203.074219 92.425781 C 202.332031 97.566406 198.847656 101.855469 194.203125 103.410156 C 192.035156 104.15625 189.660156 104.277344 187.351562 103.753906 C 186.039062 103.402344 185.054688 103.011719 184.160156 102.515625 C 183.097656 101.882812 182.203125 101.214844 181.449219 100.46875 C 180.59375 99.558594 179.925781 98.652344 179.402344 97.742188 C 178.855469 96.71875 178.453125 95.65625 178.191406 94.566406 C 177.941406 93.441406 177.839844 92.304688 177.875 91.152344 C 177.980469 89.914062 178.191406 88.796875 178.527344 87.742188 C 180.082031 83.117188 184.347656 79.625 189.402344 78.824219 C 189.402344 78.824219 189.402344 78.824219 189.410156 78.824219 L 189.503906 78.808594 C 189.503906 78.808594 189.578125 78.789062 189.585938 78.714844 C 189.597656 78.667969 189.539062 78.601562 189.492188 78.59375 C 188.992188 78.574219 188.496094 78.546875 188.003906 78.546875 Z M 188.003906 78.546875 " fill-opacity="1" fill-rule="nonzero"/></g></svg>